<?xml version="1.0" encoding="UTF-8" standalone="no"?>
<!DOCTYPE svg PUBLIC "-//W3C//DTD SVG 1.1//EN" "http://www.w3.org/Graphics/SVG/1.1/DTD/svg11.dtd">
<svg width="100%" height="100%" viewBox="0 0 200 200" version="1.1" xmlns="http://www.w3.org/2000/svg" xmlns:xlink="http://www.w3.org/1999/xlink" xml:space="preserve" xmlns:serif="http://www.serif.com/" style="fill-rule:evenodd;clip-rule:evenodd;stroke-linejoin:round;stroke-miterlimit:2;">
    <g transform="matrix(0.0567839,0,0,0.0567839,69.6094,59.119)">
        <path d="M869.5,917.4L357.5,917.4L139,917L137.1,916.9C83.376,911.573 41.99,865.787 42.1,811.8L42.1,262C42.1,203.8 89.5,156.4 147.7,156.4L869.7,156.4C927.9,156.4 975.3,203.8 975.3,262L975.3,498.3C975.3,498.8 973.3,552.3 991.4,587.5C992.504,589.982 993.074,592.668 993.074,595.383C993.074,606.026 984.317,614.783 973.674,614.783C966.841,614.783 960.493,611.173 957,605.3C934.7,562.3 936.2,503.3 936.5,497L936.5,262C936.5,225.2 906.5,195.2 869.6,195.2L147.6,195.2C110.996,195.309 80.909,225.396 80.8,262L80.8,811.8C80.692,845.631 106.378,874.441 140,878.2L357.6,878.6L869.6,878.6C906.204,878.491 936.291,848.404 936.4,811.8L936,714C935.9,712.2 934.3,693.6 915.6,669.6L915.4,669.5L892.8,639.7L770.4,477.8C770,477.2 729.7,424.8 680.4,430.3C640.4,434.8 601.1,477.4 566.8,553.6C548.4,594.4 530.6,624.8 512.5,646.6C494.1,668.4 475.2,681.5 454.8,686.6C409.5,697.6 370.2,666.6 328.6,633.9L323.3,629.8C274.7,591.6 251.6,600.3 158.1,692C154.472,695.563 149.585,697.561 144.5,697.561C133.852,697.561 125.089,688.798 125.089,678.15C125.089,672.943 127.185,667.948 130.9,664.3C179.6,616.5 211.9,588.3 242.7,576.3C277.5,562.7 309.7,569.8 347.3,599.3L352.6,603.4C388,631.4 418.6,655.4 445.6,648.8C472.3,642.3 501.2,604.8 531.4,537.6C572.3,446.9 621,397.8 676.3,391.6C747.7,383.8 799.3,451.6 801.4,454.5L923.7,616.2L946.2,645.8C973.6,680.9 974.7,710.1 974.8,713.4L974.8,713.5L975.2,811.7C975.2,870 927.8,917.4 869.5,917.4Z" style="fill:rgb(183,183,183);fill-rule:nonzero;"/>
    </g>
    <g transform="matrix(1,0,0,1,72.308,130.035)">
        <text x="0px" y="0px" style="font-family:'MicrosoftYaHei', 'Microsoft YaHei', sans-serif;font-size:13.333px;fill:rgb(183,183,183);">选择图片</text>
    </g>
</svg>
